<svg width="166" height="32" viewBox="0 0 166 32" fill="none" xmlns="http://www.w3.org/2000/svg">
<g clip-path="url(#clip0_452_100)">
<path d="M0.355347 0.0433514V23.1132H3.95689V2.25445H7.29045C7.29045 2.25445 9.71251 2.25445 10.5417 3.33754C11.2463 4.25761 11.375 5.92665 11.375 7.05365C11.375 8.25989 11.2988 10.1237 10.894 10.8061C10.2798 11.8488 9.2714 12.0578 8.34931 12.0578H6.14881V14.1053H9.31329C9.31329 14.1053 12.1684 14.2244 13.3963 12.9763C14.9018 11.4461 15.2844 9.3889 15.2844 6.63475C15.2844 4.13244 14.3765 1.60793 12.5207 0.750438C10.9844 0.0438561 8.21455 0.0438561 8.21455 0.0438561L0.355347 0.0433514ZM18.1148 23.1138H21.7158V0.0438561H18.1148V23.1138ZM40.8753 5.42448L47.4642 22.6928L43.6814 31.9571H46.6708L57.5637 5.42448H54.2261L49.4809 18.3564L45.0663 5.42448H40.8753ZM60.2755 22.9765V20.7962C60.2755 20.7962 64.084 20.9456 64.8774 20.9456C66.6347 20.9456 67.5124 20.5711 68.173 19.8625C68.5632 19.4375 68.9155 17.5555 68.9155 16.8847C68.9155 16.2165 68.7868 14.7715 68.5253 14.1795C68.2553 13.5996 67.6416 13.0581 66.7215 12.9799C66.0654 12.9233 65.051 12.7906 63.8649 12.7361C62.2019 12.6573 61.1027 11.7898 60.5733 11.166C60.0484 10.5416 59.3453 9.60138 59.3453 6.72459C59.3453 3.84426 60.0903 2.22972 60.8372 1.48074C61.5842 0.727726 62.6769 0.397652 63.5167 0.248765C64.4827 0.0837275 66.0609 0.0736335 66.0609 0.0736335L71.1018 0.220502V2.40081C71.1018 2.40081 67.4261 2.25394 66.6352 2.25394C64.8774 2.25394 64.3499 2.63045 63.6918 3.33703C63.3032 3.75745 62.9994 4.92129 62.9994 5.588C62.9994 6.25774 63.0776 7.61084 63.3416 8.1963C63.603 8.7767 64.2192 9.31976 65.1413 9.40253C65.7954 9.453 66.8119 9.58574 67.9959 9.63974C69.6665 9.71847 70.7637 10.584 71.2871 11.2104C71.817 11.8362 72.5211 13.155 72.5211 16.0293C72.5211 18.9101 71.7701 20.9678 71.0271 21.7188C70.2787 22.4672 69.1875 22.8018 68.3482 22.9467C67.3797 23.1132 65.8015 23.1259 65.8015 23.1259L60.2755 22.9765ZM79.9255 2.25344H76.326V19.1902C76.326 19.1902 76.4123 20.7361 76.5011 21.2797C76.5895 21.8232 77.3808 23.1138 79.444 23.1138L83.1743 23.0411V20.8688C83.1743 20.8688 82.1639 20.9415 81.5542 20.9415C80.9359 20.9415 80.187 20.9011 80.0603 19.8564C79.925 18.8137 79.925 17.5676 79.925 17.5676V7.59469H83.9919V5.42448H79.925V2.25394M114.68 23.1138H118.279V5.42549H114.68V23.1138ZM114.68 3.25426H118.279V0.0428467H114.68V3.25426ZM129.657 5.27357C132.107 5.27357 134.008 5.82117 135.028 6.64636C136.059 7.47407 137.325 9.21932 137.325 14.2699C137.325 19.3209 136.059 21.0642 135.028 21.8939C134.007 22.7191 132.107 23.2707 129.657 23.2707C127.201 23.2707 125.309 22.7191 124.28 21.8939C123.252 21.0642 121.991 19.3209 121.991 14.2699C121.991 9.21932 123.252 7.47356 124.28 6.64636C125.309 5.82117 127.201 5.27357 129.657 5.27357ZM127.189 8.66516C126.694 9.27585 126.09 10.5578 126.09 14.2699C126.09 17.9804 126.694 19.2644 127.189 19.8721C127.682 20.4767 128.592 20.885 129.77 20.885C130.949 20.885 131.855 20.4762 132.355 19.8726C132.848 19.2644 133.452 17.9799 133.452 14.2704C133.452 10.5578 132.848 9.27535 132.355 8.66567C131.855 8.06003 130.949 7.65475 129.77 7.65475C128.592 7.65475 127.682 8.05952 127.189 8.66567M144.784 7.90862L148.315 7.75973C149.238 7.75973 150.326 8.00905 150.853 8.67778C151.344 9.30765 151.654 10.0586 151.654 11.2684V23.0936H155.26V10.9706C155.26 8.67778 154.553 7.34486 153.494 6.50757C151.984 5.30991 149.279 5.42448 149.279 5.42448L141.212 5.56933V23.0936H144.784V7.90862ZM107.508 2.25344H103.907V19.1902C103.907 19.1902 103.992 20.7361 104.079 21.2797C104.169 21.8232 104.954 23.1138 107.026 23.1138L110.756 23.0411V20.8688C110.756 20.8688 109.743 20.9415 109.132 20.9415C108.52 20.9415 107.769 20.9011 107.638 19.8564C107.509 18.8137 107.509 17.5676 107.509 17.5676V7.59469H111.565V5.42448H107.509L107.508 2.25344ZM35.3816 11.2684C35.3816 10.0586 35.0737 9.30765 34.5781 8.67778C34.0507 8.00905 32.9681 7.75922 32.0415 7.75922L27.2923 7.90862V5.56933L33.008 5.42448C33.008 5.42448 35.7132 5.3094 37.2253 6.50757C38.2801 7.34537 38.9806 8.67778 38.9806 10.9706V22.9245L32.0799 23.0734C32.0799 23.0734 28.9558 23.0845 27.3811 22.4475C25.8473 21.8232 25.01 20.1103 25.01 17.7326C25.01 15.4377 25.7125 14.1048 26.7674 13.2675C28.2789 12.0679 30.9826 12.1865 30.9826 12.1865H33.1872V14.2239H31.9507C31.025 14.2239 30.0732 14.395 29.5432 15.0633C29.0501 15.6871 28.7862 16.2291 28.7862 17.4389C28.7862 19.0272 29.094 19.7353 29.841 20.2753C30.5017 20.7563 31.6832 20.8608 33.0019 20.8608L35.3816 20.7159V11.2684ZM96.1022 11.2684C96.1022 10.0586 95.8009 9.30765 95.3053 8.67778C94.7718 8.00905 93.6887 7.75922 92.7692 7.75922L88.0219 7.90862V5.56933L93.7331 5.42448C93.7331 5.42448 96.4368 5.3094 97.9469 6.50757C99.0017 7.34537 99.7063 8.67778 99.7063 10.9706V22.9245L92.805 23.0734C92.805 23.0734 89.6769 23.0845 88.1062 22.4475C86.5704 21.8232 85.7311 20.1103 85.7311 17.7326C85.7311 15.4377 86.4397 14.1048 87.4885 13.2675C88.9985 12.0679 91.7078 12.1865 91.7078 12.1865H93.9103V14.2239H92.6723C91.7522 14.2239 90.7943 14.395 90.2709 15.0633C89.7753 15.6871 89.5098 16.2291 89.5098 17.4389C89.5098 19.0272 89.8197 19.7353 90.5646 20.2753C91.2228 20.7563 92.4108 20.8608 93.7291 20.8608L96.1027 20.7159L96.1022 11.2684ZM161.786 23.2586C162.248 23.2597 162.706 23.1695 163.133 22.9933C163.56 22.817 163.948 22.5582 164.275 22.2317C164.601 21.9051 164.86 21.5173 165.037 21.0903C165.214 20.6634 165.304 20.2058 165.303 19.7439C165.304 19.2817 165.214 18.824 165.037 18.3969C164.861 17.9699 164.601 17.582 164.274 17.2557C163.948 16.9288 163.56 16.6697 163.133 16.4934C162.706 16.3172 162.248 16.2272 161.786 16.2286C159.856 16.2286 158.271 17.8053 158.271 19.7439C158.271 20.6816 158.634 21.5658 159.304 22.232C159.63 22.5579 160.017 22.8163 160.443 22.9925C160.869 23.1686 161.325 23.2591 161.786 23.2586ZM158.861 19.7439C158.861 18.9626 159.169 18.2277 159.719 17.6761C159.99 17.4037 160.312 17.1876 160.667 17.0401C161.021 16.8926 161.402 16.8166 161.786 16.8166C162.567 16.8166 163.304 17.1245 163.855 17.6761C164.128 17.9472 164.343 18.2695 164.491 18.6244C164.638 18.9792 164.714 19.3597 164.713 19.7439C164.713 21.3564 163.403 22.6711 161.786 22.6711C161.402 22.671 161.022 22.5951 160.667 22.4479C160.312 22.3007 159.99 22.085 159.719 21.8131C159.447 21.5417 159.231 21.2191 159.083 20.864C158.936 20.5089 158.861 20.1283 158.861 19.7439Z" fill="#FCFCFC"/>
<path d="M163.522 21.3766C163.469 21.3564 163.429 21.2958 163.407 21.205C163.385 21.1078 163.374 21.0087 163.373 20.9092L163.357 20.404C163.349 20.1668 163.298 19.9972 163.213 19.8842C163.159 19.8085 163.077 19.7479 162.982 19.6914C163.099 19.6147 163.203 19.5223 163.278 19.4057C163.377 19.2482 163.429 19.0494 163.429 18.8076C163.429 18.3448 163.233 18.0183 162.853 17.8472C162.652 17.7564 162.408 17.716 162.11 17.716H160.293V21.6299H160.969V20.025H162.038C162.231 20.025 162.376 20.0452 162.458 20.082C162.597 20.1501 162.672 20.2889 162.68 20.5009L162.71 21.1267C162.718 21.2797 162.726 21.3761 162.738 21.4326C162.757 21.4932 162.766 21.5411 162.789 21.5815L162.817 21.6299H163.572V21.4003L163.521 21.3761L163.522 21.3766ZM162.738 18.8561C162.738 19.0751 162.682 19.2205 162.573 19.3007C162.449 19.3835 162.276 19.4294 162.058 19.4294H160.969V18.3231H162.125C162.279 18.3231 162.408 18.3448 162.501 18.3892C162.662 18.47 162.738 18.6265 162.738 18.8561Z" fill="#FCFCFC"/>
</g>
<defs>
<clipPath id="clip0_452_100">
<rect width="165.289" height="32" fill="white" transform="translate(0.355347)"/>
</clipPath>
</defs>
</svg>
